<?xml version="1.0" standalone="no"?>
<!DOCTYPE svg PUBLIC "-//W3C//DTD SVG 20010904//EN"
 "http://www.w3.org/TR/2001/REC-SVG-20010904/DTD/svg10.dtd">
<svg version="1.0" xmlns="http://www.w3.org/2000/svg"
 width="200.000000pt" height="200.000000pt" viewBox="0 0 200.000000 200.000000"
 preserveAspectRatio="xMidYMid meet">

<g transform="translate(0.000000,200.000000) scale(0.100000,-0.100000)"
fill="#000000" stroke="none">
<path d="M885 1989 c-418 -53 -755 -353 -857 -766 -26 -105 -31 -324 -10 -413
53 -219 138 -377 278 -517 128 -128 284 -215 471 -264 126 -34 340 -34 466 0
234 61 422 183 557 363 265 351 277 815 30 1172 -56 81 -176 202 -253 255
-127 87 -297 150 -462 170 -101 12 -120 12 -220 0z m514 -129 c254 -98 442
-321 523 -620 30 -114 33 -344 4 -465 -33 -143 -106 -283 -189 -364 l-35 -33
-7 48 c-29 209 -93 442 -158 571 -40 79 -115 183 -132 183 -21 0 -178 -121
-259 -199 -144 -140 -284 -321 -407 -525 l-53 -90 -59 65 c-83 90 -190 255
-290 448 l-85 164 -35 -70 c-20 -38 -50 -112 -68 -164 -18 -52 -36 -98 -41
-104 -11 -13 -10 266 2 383 13 123 53 283 95 390 39 97 102 212 115 212 6 0
10 -17 10 -37 0 -136 75 -495 137 -663 46 -124 132 -295 143 -284 4 5 34 70
65 144 108 256 247 519 375 710 72 107 248 330 261 330 5 0 45 -14 88 -30z"/>
</g>
</svg>
